<?xml version="1.0" ?><!DOCTYPE svg  PUBLIC '-//W3C//DTD SVG 1.1//EN'  'http://www.w3.org/Graphics/SVG/1.1/DTD/svg11.dtd'><svg height="512px" id="形状_2_1_" style="enable-background:new 0 0 512 512;" version="1.1" viewBox="0 0 512 512" width="512px" xml:space="preserve" xmlns="http://www.w3.org/2000/svg" xmlns:xlink="http://www.w3.org/1999/xlink"><g id="形状_2"><g><path d="M252.448,235.16v-26.617h-85.785    c-12.663,0-23.368,8.803-26.299,20.593v-20.462H89.159l-17.45,26.475h67.865L252.448,235.16z M283.443,208.676h-26.747v26.473    h26.747V208.676z M366.999,208.676h-26.742v26.473h26.742V208.676z M26.022,304.457h33.085l42.296-65.913l-30.761-1.776    L26.022,304.457z M394.376,208.543c-14.738,0-26.824,11.927-27.09,26.605l118.691,0.012v-26.617H394.376z M458.882,246.43    l-5.065-0.223c-28.724-1.264-57.361-2.711-86.049-4.191c2.232,11.256,11.732,20.628,26.608,22.641l62.534,3.836    c2.575,0,4.676,2.104,4.676,4.675c0,2.571-2.101,4.676-4.676,4.676h-89.911v-35.867l-26.742-1.38v30.677    c0,4.297-3.514,7.805-7.805,7.805h-41.204c-4.297,0-7.805-3.508-7.805-7.805v-33.607l-26.747-1.38v30.409    c-3.057-11.504-13.676-19.797-26.21-19.797l-117.786-7.701v65.261h117.786c13.138,0,24.167-9.474,26.598-21.929    c2.145,12.414,13.002,21.929,25.975,21.929h57.582c12.864,0,23.654-9.361,25.918-21.626v21.626h92.323    c14.902,0,27.096-12.188,27.096-27.096v-3.836C485.978,258.623,473.784,246.43,458.882,246.43z M228.518,277.843h-88.154v-34.461    c2.709,10.64,12.032,19.344,26.299,21.274l61.855,3.836c2.572,0,4.676,2.104,4.676,4.675    C233.194,275.738,231.09,277.843,228.518,277.843z" style="fill-rule:evenodd;clip-rule:evenodd;fill:#1B1B1B;"/></g></g></svg>