<?xml version="1.0" ?><!DOCTYPE svg  PUBLIC '-//W3C//DTD SVG 1.1//EN'  'http://www.w3.org/Graphics/SVG/1.1/DTD/svg11.dtd'><svg height="512px" style="enable-background:new 0 0 512 512;" version="1.1" viewBox="0 0 512 512" width="512px" xml:space="preserve" xmlns="http://www.w3.org/2000/svg" xmlns:xlink="http://www.w3.org/1999/xlink"><g id="形状_2_3_" style="enable-background:new    ;"><g id="形状_2"><g><path d="M318.214,201.984h-28.739v108.28h78.267v-23.633h-49.527     V201.984z M428.332,249.11v19.135h21.931c0,0,0.212,24.089-22.425,24.089c-5.751,0-10.873-2.087-14.819-6.027     c-6.136-6.137-9.383-16.474-9.383-29.881c0-22.202,8.824-35.457,23.601-35.457c9.231,0,16.17,5.668,17.947,14.257h30.485     c-1.583-12.48-5.009-18.985-13.361-25.615c-8.977-6.952-20.527-10.479-34.317-10.479c-16.375,0-30.052,5.026-39.559,14.533     c-9.931,9.932-15.184,24.563-15.184,42.311c0,18.958,5.557,34.96,15.644,45.042c7.914,7.914,18.474,12.099,30.545,12.099     c26.507,0,32.604-15.888,32.604-15.888v13.036h23.937V249.11H428.332z" style="fill-rule:evenodd;clip-rule:evenodd;fill:#707070;"/></g></g></g><g id="形状_2_2_" style="enable-background:new    ;"><g id="形状_2_1_"><g><path d="M145.553,146.969c-60.491,0-109.531,49.041-109.531,109.532     c0,60.49,49.04,109.53,109.531,109.53c60.493,0,109.532-49.04,109.532-109.53C255.085,196.01,206.046,146.969,145.553,146.969z      M172.226,295.044v8.407h-22.685v0.06h-8.41v-94.19h8.41v85.724H172.226z M145.553,348.192c-50.637,0-91.69-41.05-91.69-91.691     c0-50.64,41.054-91.69,91.69-91.69c1.337,0,2.667,0.028,3.99,0.086l-0.009,8.349c-1.32-0.063-2.646-0.092-3.98-0.092     c-46.031,0-83.348,37.315-83.348,83.348c0,46.034,37.317,83.349,83.348,83.349c44.778,0,81.307-35.304,83.267-79.6l0.021-0.244     h-56.481v-8.409h64.757c0.087,1.628,0.129,3.256,0.129,4.904C237.245,307.143,196.193,348.192,145.553,348.192z M124.233,221.815     c0,7.114-5.768,12.882-12.882,12.882c-7.116,0-12.882-5.768-12.882-12.882s5.766-12.882,12.882-12.882     C118.465,208.934,124.233,214.701,124.233,221.815z" style="fill-rule:evenodd;clip-rule:evenodd;fill:#C6004D;"/></g></g></g></svg>