<?xml version="1.0" ?><!DOCTYPE svg  PUBLIC '-//W3C//DTD SVG 1.1//EN'  'http://www.w3.org/Graphics/SVG/1.1/DTD/svg11.dtd'><svg height="512px" id="形状_1_1_" style="enable-background:new 0 0 512 512;" version="1.1" viewBox="0 0 512 512" width="512px" xml:space="preserve" xmlns="http://www.w3.org/2000/svg" xmlns:xlink="http://www.w3.org/1999/xlink"><g id="形状_1"><g><path d="M108.611,218.655l-0.098,55.178l-44.809-55.271H26.28    l-0.287,0.093l0.192,73.412l21.591-0.195l0.096-55.273l44.907,55.469h37.423l-0.097-73.505L108.611,218.655z M348.789,218.563    l-0.193,0.19l0.098,73.314h22.936l-0.19-73.412C363.952,218.465,356.371,218.563,348.789,218.563z M296.781,254.256l42.03-35.601    h-30.517l-36.75,33.202l-2.783,2.301l-0.098-0.096v-35.407h-22.931v73.412h22.931v-37.329l0.197-0.291l42.023,37.62l33.3-0.195    l-47.306-37.232L296.781,254.256z M209.94,217.79l-36.079-0.191c-8.54,0.385-17.464,0-24.854,3.072    c-4.51,2.401-9.211,7.102-9.403,12.478l-0.192,42.313l0.769,4.607c1.533,5.659,7.579,10.36,13.24,11.226    c12.764,2.304,26.868,1.438,40.59,1.629c11.612-0.284,23.703,0.772,33.682-3.547c4.604-2.592,8.348-7.292,8.635-12.668    l0.096-39.917c0.097-3.169-0.48-5.952-1.631-8.54C229.708,218.847,219.441,218.174,209.94,217.79z M215.795,271.432    c-1.918,3.551-6.141,2.686-9.692,2.974l-41.455-0.098c-1.438-0.475-3.454-0.283-4.125-2.108    c-0.48-10.841-0.193-21.974-0.193-32.912c0.29-2.206,2.689-2.975,4.609-3.356l47.402,0.094c1.246,0.381,2.687,0.574,3.261,2.015    l0.29,2.401L215.795,271.432z M445.995,218.655h-29.653l-40.394,73.412l25.617-0.195l6.909-12.473h45.004l0.479,0.19    c2.113,4.222,4.417,8.247,6.719,12.478h25.331v-0.293L445.995,218.655z M416.916,263.278l14.106-26.197    c4.701,8.638,9.408,17.466,14.108,26.197H416.916z" style="fill-rule:evenodd;clip-rule:evenodd;fill:#213E98;"/></g></g></svg>